# xmcd
# 
# Track frame offsets:
#     150
#     10856
#     29602
#     55533
#     74118
#     95956
#     119957
#     138134
#     159336
#     172909
#     199925
#     216126
#     227504
#     241281
#     256721
#     272043
#     285331
#     300215
#     312575
# 
# Disc length: 4298
# 
# Revision: 1
# Processed by: cddbd v1.5.2PL0 Copyright (c) Steve Scherf et al.
# Submitted via: fre:ac v1.0.31
# 
DISCID=0c10c813
DTITLE=Various Artist - StoMo's Artist Collection Blues and Boogie Vol. 3
DYEAR=2010
DGENRE=Blues
TTITLE0=Peter Crow C. - Evil Queen Of Diamonds
TTITLE1=Christian Dozzler - Roxanne
TTITLE2=Dynamite Daze - Pill Poppin Son Of A Bitch
TTITLE3=Bena and Ptaszek - Midnight Special
TTITLE4=Crazy Hambones - Got A Hole In The Roll
TTITLE5=Morblus - My Shoes
TTITLE6=Calo Rapallo - Ich geh zurück
TTITLE7=Little Willi Littlefield - Cheerful Baby
TTITLE8=Streetrats - Louisiana 50
TTITLE9=NOOT - Ease Back
TTITLE10=Kelly Rucker - Hellbound Train
TTITLE11=Richard Ray Farrell - Crazy Over You
TTITLE12=Steve "Big Man" Clayton - Set My Spirit Free
TTITLE13=Fritz Cats - Kiss
TTITLE14=Top Dog Brass Band - Blow Fish Funk
TTITLE15=Henning Pertiet - Jueterboogie
TTITLE16=Gospel4 - Lean On Me
TTITLE17=Jan Preston - The Piano Has The Blues
TTITLE18=Professor Nineteen - Country Blues
EXTD=
EXTT0=
EXTT1=
EXTT2=
EXTT3=
EXTT4=
EXTT5=
EXTT6=
EXTT7=
EXTT8=
EXTT9=
EXTT10=
EXTT11=
EXTT12=
EXTT13=
EXTT14=
EXTT15=
EXTT16=
EXTT17=
EXTT18=
PLAYORDER=
